STARTFONT 2.1
COMMENT
COMMENT Converted from OpenType font "alphbeta.ttf" by "otf2bdf 3.0".
COMMENT
FONT -FreeType-Alpha Beta BRK-Medium-R-Normal--33-240-100-100-P-141-ISO10646-1
SIZE 24 100 100
FONTBOUNDINGBOX 25 31 0 -5
STARTPROPERTIES 19
FOUNDRY "FreeType"
FAMILY_NAME "Alpha Beta BRK"
WEIGHT_NAME "Medium"
SLANT "R"
SETWIDTH_NAME "Normal"
ADD_STYLE_NAME ""
PIXEL_SIZE 33
POINT_SIZE 240
RESOLUTION_X 100
RESOLUTION_Y 100
SPACING "P"
AVERAGE_WIDTH 141
CHARSET_REGISTRY "ISO10646"
CHARSET_ENCODING "1"
FONT_ASCENT 24
FONT_DESCENT 4
COPYRIGHT "ÆNIGMA FONTS   [e-mail]  kentpw@norwich.net"
_OTF_FONTFILE "alphbeta.ttf"
_OTF_PSNAME "AlphaBetaBRK"
ENDPROPERTIES
CHARS 227
STARTCHAR 0020
ENCODING 32
SWIDTH 540 0
DWIDTH 18 0
BBX 0 0 0 0
BITMAP
ENDCHAR
STARTCHAR 0021
ENCODING 33
SWIDTH 240 0
DWIDTH 8 0
BBX 5 21 0 0
BITMAP
F8
F8
F8
F8
F8
F8
F8
F8
F8
F8
F8
F8
F8
F8
F8
F8
00
00
F8
F8
F8
ENDCHAR
STARTCHAR 0022
ENCODING 34
SWIDTH 510 0
DWIDTH 17 0
BBX 14 5 1 16
BITMAP
F8FC
F8FC
F8FC
381C
381C
ENDCHAR
STARTCHAR 0023
ENCODING 35
SWIDTH 690 0
DWIDTH 23 0
BBX 20 21 0 0
BITMAP
1F07C0
1F07C0
1F07C0
1F07C0
1F07C0
FFFFF0
FFFFF0
FFFFF0
1F07C0
1F07C0
1F07C0
1F07C0
1F07C0
FFFFF0
FFFFF0
FFFFF0
1F07C0
1F07C0
1F07C0
1F07C0
1F07C0
ENDCHAR
STARTCHAR 0024
ENCODING 36
SWIDTH 540 0
DWIDTH 18 0
BBX 15 31 0 -5
BITMAP
00C0
00C0
07C0
07C0
07C0
1FF8
1FF8
F83E
F83E
F83E
F800
F800
F800
F8F8
F8F8
FFFE
1F3E
1F3E
003E
003E
F83E
F83E
F83E
1FF8
1FF8
1FF8
07C0
07C0
0700
0700
0700
ENDCHAR
STARTCHAR 0025
ENCODING 37
SWIDTH 690 0
DWIDTH 23 0
BBX 20 21 0 0
BITMAP
FF07C0
FF07C0
FF07C0
E73E00
E73E00
FF3E00
FF3E00
FF3E00
00F800
00F800
00F800
00F800
00F800
07C7F0
07C7F0
07C7F0
07C630
07C630
1F07F0
1F07F0
1F07F0
ENDCHAR
STARTCHAR 0026
ENCODING 38
SWIDTH 540 0
DWIDTH 18 0
BBX 15 31 0 -5
BITMAP
00C0
00C0
07C0
07C0
07C0
3FF0
3FF0
3830
F83E
F83E
F83E
F800
F800
3FC0
3FC0
FFC0
F800
F800
F800
F800
F83E
F83E
F83E
3FF0
3FF0
3FF0
07C0
07C0
0700
0700
0700
ENDCHAR
STARTCHAR 0027
ENCODING 39
SWIDTH 240 0
DWIDTH 8 0
BBX 5 5 0 16
BITMAP
F8
F8
F8
E0
E0
ENDCHAR
STARTCHAR 0028
ENCODING 40
SWIDTH 330 0
DWIDTH 11 0
BBX 8 21 0 0
BITMAP
1F
1F
1F
F8
F8
F8
F8
F8
F8
F8
F8
F8
F8
F8
F8
F8
F8
F8
1F
1F
1F
ENDCHAR
STARTCHAR 0029
ENCODING 41
SWIDTH 330 0
DWIDTH 11 0
BBX 8 21 0 0
BITMAP
F8
F8
F8
1F
1F
1F
1F
1F
1F
1F
1F
1F
1F
1F
1F
1F
1F
1F
F8
F8
F8
ENDCHAR
STARTCHAR 002A
ENCODING 42
SWIDTH 450 0
DWIDTH 15 0
BBX 13 13 0 8
BITMAP
0700
0700
E738
E738
E738
1FC0
1FC0
1FC0
E738
E738
E738
0700
0700
ENDCHAR
STARTCHAR 002B
ENCODING 43
SWIDTH 480 0
DWIDTH 16 0
BBX 13 13 0 5
BITMAP
0700
0700
0700
0700
0700
FFF8
FFF8
FFF8
0700
0700
0700
0700
0700
ENDCHAR
STARTCHAR 002C
ENCODING 44
SWIDTH 240 0
DWIDTH 8 0
BBX 5 8 1 -5
BITMAP
F8
F8
F8
F8
F8
38
38
38
ENDCHAR
STARTCHAR 002D
ENCODING 45
SWIDTH 480 0
DWIDTH 16 0
BBX 13 3 0 10
BITMAP
FFF8
FFF8
FFF8
ENDCHAR
STARTCHAR 002E
ENCODING 46
SWIDTH 240 0
DWIDTH 8 0
BBX 5 3 0 0
BITMAP
F8
F8
F8
ENDCHAR
STARTCHAR 002F
ENCODING 47
SWIDTH 540 0
DWIDTH 18 0
BBX 15 21 0 0
BITMAP
003E
003E
003E
00F8
00F8
00F8
00F8
00F8
07C0
07C0
07C0
07C0
07C0
1F00
1F00
1F00
1F00
1F00
F800
F800
F800
ENDCHAR
STARTCHAR 0030
ENCODING 48
SWIDTH 540 0
DWIDTH 18 0
BBX 15 21 0 0
BITMAP
1FF8
1FF8
1FF8
F83E
F83E
F83E
F83E
F83E
F83E
F83E
F83E
F83E
F83E
F83E
F83E
F83E
F83E
F83E
1FF8
1FF8
1FF8
ENDCHAR
STARTCHAR 0031
ENCODING 49
SWIDTH 330 0
DWIDTH 11 0
BBX 7 21 1 0
BITMAP
FE
FE
FE
3E
3E
3E
3E
3E
3E
3E
3E
3E
3E
3E
3E
3E
3E
3E
3E
3E
3E
ENDCHAR
STARTCHAR 0032
ENCODING 50
SWIDTH 540 0
DWIDTH 18 0
BBX 15 21 0 0
BITMAP
1FF8
1FF8
1FF8
F83E
F83E
F83E
003E
003E
1F3E
1F3E
FFFE
F8F8
F8F8
F800
F800
F800
F800
F800
FFFE
FFFE
FFFE
ENDCHAR
STARTCHAR 0033
ENCODING 51
SWIDTH 540 0
DWIDTH 18 0
BBX 15 21 0 0
BITMAP
1FF8
1FF8
1FF8
F83E
F83E
F83E
003E
003E
07F8
07F8
07FE
003E
003E
003E
003E
003E
F83E
F83E
1FF8
1FF8
1FF8
ENDCHAR
STARTCHAR 0034
ENCODING 52
SWIDTH 540 0
DWIDTH 18 0
BBX 15 21 0 0
BITMAP
F83E
F83E
F83E
F83E
F83E
F83E
F83E
F83E
F8FE
F8FE
1F3E
1F3E
1F3E
003E
003E
003E
003E
003E
003E
003E
003E
ENDCHAR
STARTCHAR 0035
ENCODING 53
SWIDTH 540 0
DWIDTH 18 0
BBX 15 21 0 0
BITMAP
FFFE
FFFE
FFFE
F800
F800
F800
F800
F800
F8F8
F8F8
FFFE
1F3E
1F3E
003E
003E
003E
F83E
F83E
1FF8
1FF8
1FF8
ENDCHAR
STARTCHAR 0036
ENCODING 54
SWIDTH 540 0
DWIDTH 18 0
BBX 15 21 0 0
BITMAP
1FF8
1FF8
1FF8
F83E
F83E
F83E
F800
F800
F8F8
F8F8
F8F8
FF3E
FF3E
FF3E
F83E
F83E
F83E
F83E
1FF8
1FF8
1FF8
ENDCHAR
STARTCHAR 0037
ENCODING 55
SWIDTH 540 0
DWIDTH 18 0
BBX 15 21 0 0
BITMAP
FFFE
FFFE
FFFE
003E
003E
003E
003E
003E
003E
003E
003E
003E
003E
003E
003E
003E
003E
003E
003E
003E
003E
ENDCHAR
STARTCHAR 0038
ENCODING 56
SWIDTH 540 0
DWIDTH 18 0
BBX 15 21 0 0
BITMAP
1FF8
1FF8
1FF8
F83E
F83E
F83E
F83E
F83E
1F3E
1F3E
FFFE
F8F8
F8F8
F83E
F83E
F83E
F83E
F83E
1FF8
1FF8
1FF8
ENDCHAR
STARTCHAR 0039
ENCODING 57
SWIDTH 540 0
DWIDTH 18 0
BBX 15 21 0 0
BITMAP
1FF8
1FF8
1FF8
F83E
F83E
F83E
F83E
F83E
1F3E
1F3E
1FFE
00FE
00FE
003E
003E
003E
003E
003E
003E
003E
003E
ENDCHAR
STARTCHAR 003A
ENCODING 58
SWIDTH 240 0
DWIDTH 8 0
BBX 5 21 0 0
BITMAP
F8
F8
F8
00
00
00
00
00
00
00
00
00
00
00
00
00
00
00
F8
F8
F8
ENDCHAR
STARTCHAR 003B
ENCODING 59
SWIDTH 240 0
DWIDTH 8 0
BBX 5 26 0 -5
BITMAP
F8
F8
F8
00
00
00
00
00
00
00
00
00
00
00
00
00
00
00
F8
F8
F8
F8
F8
38
38
38
ENDCHAR
STARTCHAR 003C
ENCODING 60
SWIDTH 390 0
DWIDTH 13 0
BBX 10 13 0 5
BITMAP
07C0
07C0
1F00
1F00
1F00
F800
F800
F800
1F00
1F00
07C0
07C0
07C0
ENDCHAR
STARTCHAR 003D
ENCODING 61
SWIDTH 480 0
DWIDTH 16 0
BBX 13 8 0 8
BITMAP
FFF8
FFF8
FFF8
0000
0000
FFF8
FFF8
FFF8
ENDCHAR
STARTCHAR 003E
ENCODING 62
SWIDTH 390 0
DWIDTH 13 0
BBX 10 13 0 5
BITMAP
F800
F800
1F00
1F00
1F00
07C0
07C0
07C0
1F00
1F00
F800
F800
F800
ENDCHAR
STARTCHAR 003F
ENCODING 63
SWIDTH 540 0
DWIDTH 18 0
BBX 15 21 0 0
BITMAP
1FF8
1FF8
1FF8
F83E
F83E
F83E
003E
003E
00F8
00F8
00F8
07C0
07C0
07C0
07C0
07C0
0000
0000
07C0
07C0
07C0
ENDCHAR
STARTCHAR 0040
ENCODING 64
SWIDTH 840 0
DWIDTH 28 0
BBX 25 21 0 0
BITMAP
1FFFFE00
1FFFFE00
1FFFFE00
F8000F80
F8000F80
F9FFCF80
F9FFCF80
F9FFCF80
F9C1CF80
F9C1CF80
F9C7CF80
F9C7CF80
F9C7CF80
F9F9FE00
F9F9FE00
F9F9FE00
F8000000
F8000000
1FF80000
1FF80000
1FF80000
ENDCHAR
STARTCHAR 0041
ENCODING 65
SWIDTH 540 0
DWIDTH 18 0
BBX 15 21 0 0
BITMAP
1FF8
1FF8
1FF8
F83E
F83E
F83E
F83E
F83E
F9FE
F9FE
FFFE
FF3E
FF3E
F83E
F83E
F83E
F83E
F83E
F83E
F83E
F83E
ENDCHAR
STARTCHAR 0042
ENCODING 66
SWIDTH 540 0
DWIDTH 18 0
BBX 15 21 0 0
BITMAP
FFF8
FFF8
FFF8
F83E
F83E
F83E
F83E
F83E
F8F8
F8F8
F8F8
FF3E
FF3E
FF3E
F83E
F83E
F83E
F83E
FFF8
FFF8
FFF8
ENDCHAR
STARTCHAR 0043
ENCODING 67
SWIDTH 540 0
DWIDTH 18 0
BBX 15 21 0 0
BITMAP
1FF8
1FF8
1FF8
F83E
F83E
F83E
F800
F800
F800
F800
F800
F800
F800
F800
F800
F800
F83E
F83E
1FF8
1FF8
1FF8
ENDCHAR
STARTCHAR 0044
ENCODING 68
SWIDTH 540 0
DWIDTH 18 0
BBX 15 21 0 0
BITMAP
FFC0
FFC0
FFC0
F8F8
F8F8
F83E
F83E
F83E
F83E
F83E
F83E
F83E
F83E
F83E
F83E
F83E
F83E
F83E
FFF8
FFF8
FFF8
ENDCHAR
STARTCHAR 0045
ENCODING 69
SWIDTH 540 0
DWIDTH 18 0
BBX 15 21 0 0
BITMAP
1FF8
1FF8
1FF8
F83E
F83E
F83E
F800
F800
FFC0
FFC0
FFC0
F800
F800
F800
F800
F800
F83E
F83E
1FF8
1FF8
1FF8
ENDCHAR
STARTCHAR 0046
ENCODING 70
SWIDTH 540 0
DWIDTH 18 0
BBX 15 21 0 0
BITMAP
1FF8
1FF8
1FF8
F83E
F83E
F83E
F800
F800
FFC0
FFC0
FFC0
F800
F800
F800
F800
F800
F800
F800
F800
F800
F800
ENDCHAR
STARTCHAR 0047
ENCODING 71
SWIDTH 540 0
DWIDTH 18 0
BBX 15 21 0 0
BITMAP
1FF8
1FF8
1FF8
F83E
F83E
F83E
F800
F800
F9FE
F9FE
F9FE
F83E
F83E
F83E
F83E
F83E
F83E
F83E
1FFE
1FFE
1FFE
ENDCHAR
STARTCHAR 0048
ENCODING 72
SWIDTH 540 0
DWIDTH 18 0
BBX 15 21 0 0
BITMAP
F83E
F83E
F83E
F83E
F83E
F83E
F83E
F83E
F9FE
F9FE
FFFE
FF3E
FF3E
F83E
F83E
F83E
F83E
F83E
F83E
F83E
F83E
ENDCHAR
STARTCHAR 0049
ENCODING 73
SWIDTH 540 0
DWIDTH 18 0
BBX 15 21 0 0
BITMAP
FFFE
FFFE
FFFE
07C0
07C0
07C0
07C0
07C0
07C0
07C0
07C0
07C0
07C0
07C0
07C0
07C0
07C0
07C0
FFFE
FFFE
FFFE
ENDCHAR
STARTCHAR 004A
ENCODING 74
SWIDTH 540 0
DWIDTH 18 0
BBX 15 21 0 0
BITMAP
003E
003E
003E
003E
003E
003E
003E
003E
003E
003E
003E
003E
003E
003E
003E
F83E
F83E
F83E
1FF8
1FF8
1FF8
ENDCHAR
STARTCHAR 004B
ENCODING 75
SWIDTH 540 0
DWIDTH 18 0
BBX 15 21 0 0
BITMAP
F83E
F83E
F83E
F83E
F83E
F83E
F83E
F83E
F8F8
F8F8
F8F8
FF3E
FF3E
FF3E
F83E
F83E
F83E
F83E
F83E
F83E
F83E
ENDCHAR
STARTCHAR 004C
ENCODING 76
SWIDTH 540 0
DWIDTH 18 0
BBX 15 21 0 0
BITMAP
F800
F800
F800
F800
F800
F800
F800
F800
F800
F800
F800
F800
F800
F800
F800
F83E
F83E
F83E
1FF8
1FF8
1FF8
ENDCHAR
STARTCHAR 004D
ENCODING 77
SWIDTH 840 0
DWIDTH 28 0
BBX 25 21 0 0
BITMAP
F9FE3E00
F9FE3E00
F9FE3E00
FF3FCF80
FF3FCF80
FF3FCF80
F83E0F80
F83E0F80
F83E0F80
F83E0F80
F83E0F80
F83E0F80
F83E0F80
F83E0F80
F83E0F80
F83E0F80
F83E0F80
F83E0F80
F83E0F80
F83E0F80
F83E0F80
ENDCHAR
STARTCHAR 004E
ENCODING 78
SWIDTH 540 0
DWIDTH 18 0
BBX 15 21 0 0
BITMAP
F8F8
F8F8
F8F8
FF3E
FF3E
FF3E
F83E
F83E
F83E
F83E
F83E
F83E
F83E
F83E
F83E
F83E
F83E
F83E
F83E
F83E
F83E
ENDCHAR
STARTCHAR 004F
ENCODING 79
SWIDTH 540 0
DWIDTH 18 0
BBX 15 21 0 0
BITMAP
1FF8
1FF8
1FF8
F83E
F83E
F83E
F83E
F83E
F83E
F83E
F83E
F83E
F83E
F83E
F83E
F83E
F83E
F83E
1FF8
1FF8
1FF8
ENDCHAR
STARTCHAR 0050
ENCODING 80
SWIDTH 540 0
DWIDTH 18 0
BBX 15 21 0 0
BITMAP
FFF8
FFF8
FFF8
F83E
F83E
F83E
F83E
F83E
F8F8
F8F8
FFF8
FF00
FF00
F800
F800
F800
F800
F800
F800
F800
F800
ENDCHAR
STARTCHAR 0051
ENCODING 81
SWIDTH 540 0
DWIDTH 18 0
BBX 15 26 0 -5
BITMAP
1FF8
1FF8
FFFE
F83E
F83E
F83E
F83E
F83E
F83E
F83E
F83E
F83E
F83E
F83E
F83E
F83E
F83E
F83E
1FF8
1FF8
1FF8
07C0
07C0
0700
0700
0700
ENDCHAR
STARTCHAR 0052
ENCODING 82
SWIDTH 540 0
DWIDTH 18 0
BBX 15 21 0 0
BITMAP
FFF8
FFF8
FFF8
F83E
F83E
F83E
F83E
F83E
F8F8
F8F8
F8F8
FF3E
FF3E
FF3E
F83E
F83E
F83E
F83E
F83E
F83E
F83E
ENDCHAR
STARTCHAR 0053
ENCODING 83
SWIDTH 540 0
DWIDTH 18 0
BBX 15 21 0 0
BITMAP
1FF8
1FF8
1FF8
F83E
F83E
F83E
F800
F800
F8F8
F8F8
FFFE
1F3E
1F3E
003E
003E
003E
F83E
F83E
1FF8
1FF8
1FF8
ENDCHAR
STARTCHAR 0054
ENCODING 84
SWIDTH 540 0
DWIDTH 18 0
BBX 15 21 0 0
BITMAP
FFFE
FFFE
FFFE
07C0
07C0
07C0
07C0
07C0
07C0
07C0
07C0
07C0
07C0
07C0
07C0
07C0
07C0
07C0
07C0
07C0
07C0
ENDCHAR
STARTCHAR 0055
ENCODING 85
SWIDTH 540 0
DWIDTH 18 0
BBX 15 21 0 0
BITMAP
F83E
F83E
F83E
F83E
F83E
F83E
F83E
F83E
F83E
F83E
F83E
F83E
F83E
F83E
F83E
F8FE
F8FE
F8FE
1F3E
1F3E
1F3E
ENDCHAR
STARTCHAR 0056
ENCODING 86
SWIDTH 540 0
DWIDTH 18 0
BBX 15 21 0 0
BITMAP
F83E
F83E
F83E
F83E
F83E
F83E
F83E
F83E
F83E
F83E
F83E
F83E
F83E
F83E
F83E
F83E
1FF8
1FF8
07F8
07C0
07C0
ENDCHAR
STARTCHAR 0057
ENCODING 87
SWIDTH 840 0
DWIDTH 28 0
BBX 25 21 0 0
BITMAP
F83E0F80
F83E0F80
F83E0F80
F83E0F80
F83E0F80
F83E0F80
F83E0F80
F83E0F80
F83E0F80
F83E0F80
F83E0F80
F83E0F80
F83E0F80
F83E0F80
F83E0F80
F83E0F80
F8FE3E00
F8FE3E00
1F3FF000
1F3FF000
1F3FF000
ENDCHAR
STARTCHAR 0058
ENCODING 88
SWIDTH 540 0
DWIDTH 18 0
BBX 15 21 0 0
BITMAP
F83E
F83E
F83E
F83E
F83E
1FF8
1FF8
1FF8
07C0
07C0
1FF8
1FF8
1FF8
F83E
F83E
F83E
F83E
F83E
F83E
F83E
F83E
ENDCHAR
STARTCHAR 0059
ENCODING 89
SWIDTH 540 0
DWIDTH 18 0
BBX 15 21 0 0
BITMAP
F83E
F83E
F83E
F83E
F83E
F83E
F83E
F83E
F8FE
F8FE
FFFE
1F3E
1F3E
003E
003E
003E
003E
003E
07F8
07F8
07F8
ENDCHAR
STARTCHAR 005A
ENCODING 90
SWIDTH 540 0
DWIDTH 18 0
BBX 15 21 0 0
BITMAP
FFFE
FFFE
FFFE
003E
003E
003E
00F8
00F8
07C0
07C0
07C0
1F00
1F00
F800
F800
F800
F800
F800
FFFE
FFFE
FFFE
ENDCHAR
STARTCHAR 005B
ENCODING 91
SWIDTH 300 0
DWIDTH 10 0
BBX 8 21 0 0
BITMAP
FF
FF
FF
F8
F8
F8
F8
F8
F8
F8
F8
F8
F8
F8
F8
F8
F8
F8
FF
FF
FF
ENDCHAR
STARTCHAR 005C
ENCODING 92
SWIDTH 540 0
DWIDTH 18 0
BBX 15 21 0 0
BITMAP
F800
F800
F800
1F00
1F00
1F00
1F00
1F00
07C0
07C0
07C0
07C0
07C0
00F8
00F8
00F8
00F8
00F8
003E
003E
003E
ENDCHAR
STARTCHAR 005D
ENCODING 93
SWIDTH 330 0
DWIDTH 11 0
BBX 7 21 1 0
BITMAP
FE
FE
FE
3E
3E
3E
3E
3E
3E
3E
3E
3E
3E
3E
3E
3E
3E
3E
FE
FE
FE
ENDCHAR
STARTCHAR 005E
ENCODING 94
SWIDTH 330 0
DWIDTH 11 0
BBX 9 8 0 13
BITMAP
1800
1800
1800
FF80
FF80
E380
E380
E380
ENDCHAR
STARTCHAR 005F
ENCODING 95
SWIDTH 480 0
DWIDTH 16 0
BBX 13 3 0 -5
BITMAP
FFF8
FFF8
FFF8
ENDCHAR
STARTCHAR 0060
ENCODING 96
SWIDTH 240 0
DWIDTH 8 0
BBX 5 5 1 16
BITMAP
F8
F8
F8
38
38
ENDCHAR
STARTCHAR 0061
ENCODING 97
SWIDTH 540 0
DWIDTH 18 0
BBX 15 13 0 0
BITMAP
1FF8
1FF8
FFFE
F83E
F83E
F83E
F83E
F83E
F8FE
F8FE
1F3E
1F3E
1F3E
ENDCHAR
STARTCHAR 0062
ENCODING 98
SWIDTH 540 0
DWIDTH 18 0
BBX 15 21 0 0
BITMAP
F800
F800
F800
F800
F800
F800
F800
F800
F8F8
F8F8
F8F8
FF3E
FF3E
FF3E
F83E
F83E
F83E
F83E
FFF8
FFF8
FFF8
ENDCHAR
STARTCHAR 0063
ENCODING 99
SWIDTH 540 0
DWIDTH 18 0
BBX 15 13 0 0
BITMAP
1FF8
1FF8
FFFE
F83E
F83E
F800
F800
F800
F83E
F83E
1FF8
1FF8
1FF8
ENDCHAR
STARTCHAR 0064
ENCODING 100
SWIDTH 540 0
DWIDTH 18 0
BBX 15 21 0 0
BITMAP
003E
003E
003E
003E
003E
003E
003E
003E
1F3E
1F3E
1F3E
F8FE
F8FE
F8FE
F83E
F83E
F83E
F83E
1FFE
1FFE
1FFE
ENDCHAR
STARTCHAR 0065
ENCODING 101
SWIDTH 540 0
DWIDTH 18 0
BBX 15 13 0 0
BITMAP
3FF0
3FF0
3FF0
F83E
F83E
F9FE
F9FE
F9FE
FF00
FF00
3FC0
3FC0
3FC0
ENDCHAR
STARTCHAR 0066
ENCODING 102
SWIDTH 540 0
DWIDTH 18 0
BBX 15 21 0 0
BITMAP
1FF8
1FF8
1FF8
F83E
F83E
F83E
F800
F800
FF00
FF00
FF00
F800
F800
F800
F800
F800
F800
F800
F800
F800
F800
ENDCHAR
STARTCHAR 0067
ENCODING 103
SWIDTH 540 0
DWIDTH 18 0
BBX 15 18 0 -5
BITMAP
1FF8
1FF8
FFFE
F83E
F83E
F83E
F83E
F8FE
F8FE
F8FE
1F3E
1F3E
1F3E
003E
003E
07F8
07F8
07F8
ENDCHAR
STARTCHAR 0068
ENCODING 104
SWIDTH 540 0
DWIDTH 18 0
BBX 15 21 0 0
BITMAP
F800
F800
F800
F800
F800
F800
F800
F800
F8F8
F8F8
F8F8
FF3E
FF3E
FF3E
F83E
F83E
F83E
F83E
F83E
F83E
F83E
ENDCHAR
STARTCHAR 0069
ENCODING 105
SWIDTH 240 0
DWIDTH 8 0
BBX 5 18 0 0
BITMAP
F8
F8
F8
00
00
F8
F8
F8
F8
F8
F8
F8
F8
F8
F8
F8
F8
F8
ENDCHAR
STARTCHAR 006A
ENCODING 106
SWIDTH 390 0
DWIDTH 13 0
BBX 10 24 0 -5
BITMAP
07C0
07C0
07C0
0000
0000
0000
07C0
07C0
07C0
07C0
07C0
07C0
07C0
07C0
07C0
07C0
07C0
07C0
07C0
07C0
07C0
FFC0
FF00
FF00
ENDCHAR
STARTCHAR 006B
ENCODING 107
SWIDTH 540 0
DWIDTH 18 0
BBX 15 21 0 0
BITMAP
F800
F800
F800
F83E
F83E
F83E
F83E
F83E
F8F8
F8F8
F8F8
FF3E
FF3E
FF3E
F83E
F83E
F83E
F83E
F83E
F83E
F83E
ENDCHAR
STARTCHAR 006C
ENCODING 108
SWIDTH 240 0
DWIDTH 8 0
BBX 5 21 0 0
BITMAP
F8
F8
F8
F8
F8
F8
F8
F8
F8
F8
F8
F8
F8
F8
F8
F8
F8
F8
F8
F8
F8
ENDCHAR
STARTCHAR 006D
ENCODING 109
SWIDTH 840 0
DWIDTH 28 0
BBX 25 13 0 0
BITMAP
F9FE3E00
F9FE3E00
F9FE3E00
FF3FCF80
FF3FCF80
FF3FCF80
F83E0F80
F83E0F80
F83E0F80
F83E0F80
F83E0F80
F83E0F80
F83E0F80
ENDCHAR
STARTCHAR 006E
ENCODING 110
SWIDTH 540 0
DWIDTH 18 0
BBX 15 13 0 0
BITMAP
F8F8
F8F8
F8F8
FF3E
FF3E
FF3E
F83E
F83E
F83E
F83E
F83E
F83E
F83E
ENDCHAR
STARTCHAR 006F
ENCODING 111
SWIDTH 540 0
DWIDTH 18 0
BBX 15 13 0 0
BITMAP
1FF8
1FF8
1FF8
F83E
F83E
F83E
F83E
F83E
F83E
F83E
1FF8
1FF8
1FF8
ENDCHAR
STARTCHAR 0070
ENCODING 112
SWIDTH 540 0
DWIDTH 18 0
BBX 15 18 0 -5
BITMAP
FFF8
FFF8
FFFE
F83E
F83E
F83E
F83E
FF3E
FF3E
FF3E
F8F8
F8F8
F8F8
F800
F800
F800
F800
F800
ENDCHAR
STARTCHAR 0071
ENCODING 113
SWIDTH 540 0
DWIDTH 18 0
BBX 15 18 0 -5
BITMAP
1FFE
1FFE
FFFE
F83E
F83E
F83E
F83E
F8FE
F8FE
F8FE
1F3E
1F3E
1F3E
003E
003E
003E
003E
003E
ENDCHAR
STARTCHAR 0072
ENCODING 114
SWIDTH 540 0
DWIDTH 18 0
BBX 15 13 0 0
BITMAP
F8F8
F8F8
FFFE
FF3E
FF3E
F800
F800
F800
F800
F800
F800
F800
F800
ENDCHAR
STARTCHAR 0073
ENCODING 115
SWIDTH 540 0
DWIDTH 18 0
BBX 15 13 0 0
BITMAP
3FFE
3FFE
3FFE
F800
F800
FFFE
FFFE
FFFE
003E
003E
FFF8
FFF8
FFF8
ENDCHAR
STARTCHAR 0074
ENCODING 116
SWIDTH 390 0
DWIDTH 13 0
BBX 10 18 0 0
BITMAP
F800
F800
F800
F800
F800
FFC0
FFC0
FFC0
F800
F800
F800
F800
F800
F800
F800
3FC0
3FC0
3FC0
ENDCHAR
STARTCHAR 0075
ENCODING 117
SWIDTH 540 0
DWIDTH 18 0
BBX 15 13 0 0
BITMAP
F83E
F83E
F83E
F83E
F83E
F83E
F83E
F8FE
F8FE
F8FE
1F3E
1F3E
1F3E
ENDCHAR
STARTCHAR 0076
ENCODING 118
SWIDTH 540 0
DWIDTH 18 0
BBX 15 13 0 0
BITMAP
F83E
F83E
F83E
F83E
F83E
F83E
F83E
F83E
1FF8
1FF8
07F8
07C0
07C0
ENDCHAR
STARTCHAR 0077
ENCODING 119
SWIDTH 840 0
DWIDTH 28 0
BBX 25 13 0 0
BITMAP
F83E0F80
F83E0F80
F83E0F80
F83E0F80
F83E0F80
F83E0F80
F83E0F80
F83E0F80
F8FE3E00
F8FE3E00
1F3FF000
1F3FF000
1F3FF000
ENDCHAR
STARTCHAR 0078
ENCODING 120
SWIDTH 540 0
DWIDTH 18 0
BBX 15 13 0 0
BITMAP
F83E
F83E
F83E
1FF8
1FF8
07C0
07C0
07C0
1FF8
1FF8
F83E
F83E
F83E
ENDCHAR
STARTCHAR 0079
ENCODING 121
SWIDTH 540 0
DWIDTH 18 0
BBX 15 18 0 -5
BITMAP
F83E
F83E
F83E
F83E
F83E
F83E
F83E
F8FE
F8FE
F8FE
1F3E
1F3E
1F3E
003E
003E
07FE
07F8
07F8
ENDCHAR
STARTCHAR 007A
ENCODING 122
SWIDTH 540 0
DWIDTH 18 0
BBX 15 13 0 0
BITMAP
FFFE
FFFE
FFFE
00F8
00F8
07C0
07C0
07C0
1F00
1F00
FFFE
FFFE
FFFE
ENDCHAR
STARTCHAR 007B
ENCODING 123
SWIDTH 390 0
DWIDTH 13 0
BBX 10 21 0 0
BITMAP
07C0
07C0
07C0
1F00
1F00
1F00
1F00
1F00
F800
F800
F800
1F00
1F00
1F00
1F00
1F00
1F00
1F00
07C0
07C0
07C0
ENDCHAR
STARTCHAR 007C
ENCODING 124
SWIDTH 240 0
DWIDTH 8 0
BBX 5 31 0 -5
BITMAP
F8
F8
F8
F8
F8
F8
F8
F8
F8
F8
F8
F8
F8
F8
F8
F8
F8
F8
F8
F8
F8
F8
F8
F8
F8
F8
F8
F8
F8
F8
F8
ENDCHAR
STARTCHAR 007D
ENCODING 125
SWIDTH 390 0
DWIDTH 13 0
BBX 10 21 0 0
BITMAP
F800
F800
F800
1F00
1F00
1F00
1F00
1F00
07C0
07C0
07C0
1F00
1F00
1F00
1F00
1F00
1F00
1F00
F800
F800
F800
ENDCHAR
STARTCHAR 007E
ENCODING 126
SWIDTH 630 0
DWIDTH 21 0
BBX 18 8 0 8
BITMAP
1F07C0
1F07C0
1F07C0
F8C7C0
F8C7C0
F83E00
F83E00
F83E00
ENDCHAR
STARTCHAR 007F
ENCODING 127
SWIDTH 540 0
DWIDTH 18 0
BBX 15 21 0 0
BITMAP
FFFE
FFFE
FFFE
FFFE
FFFE
FFFE
FFFE
FFFE
FFFE
FFFE
FFFE
FFFE
FFFE
FFFE
FFFE
FFFE
FFFE
FFFE
FFFE
FFFE
FFFE
ENDCHAR
STARTCHAR 0080
ENCODING 128
SWIDTH 540 0
DWIDTH 18 0
BBX 15 20 0 0
BITMAP
FFFE
FFFE
FFFE
FFFE
FFFE
FFFE
FFFE
FFFE
FFFE
FFFE
FFFE
FFFE
FFFE
FFFE
FFFE
FFFE
FFFE
FFFE
FFFE
FFFE
ENDCHAR
STARTCHAR 0081
ENCODING 129
SWIDTH 540 0
DWIDTH 18 0
BBX 15 20 0 0
BITMAP
FFFE
FFFE
FFFE
FFFE
FFFE
FFFE
FFFE
FFFE
FFFE
FFFE
FFFE
FFFE
FFFE
FFFE
FFFE
FFFE
FFFE
FFFE
FFFE
FFFE
ENDCHAR
STARTCHAR 008D
ENCODING 141
SWIDTH 540 0
DWIDTH 18 0
BBX 15 20 0 0
BITMAP
FFFE
FFFE
FFFE
FFFE
FFFE
FFFE
FFFE
FFFE
FFFE
FFFE
FFFE
FFFE
FFFE
FFFE
FFFE
FFFE
FFFE
FFFE
FFFE
FFFE
ENDCHAR
STARTCHAR 008E
ENCODING 142
SWIDTH 540 0
DWIDTH 18 0
BBX 15 20 0 0
BITMAP
FFFE
FFFE
FFFE
FFFE
FFFE
FFFE
FFFE
FFFE
FFFE
FFFE
FFFE
FFFE
FFFE
FFFE
FFFE
FFFE
FFFE
FFFE
FFFE
FFFE
ENDCHAR
STARTCHAR 008F
ENCODING 143
SWIDTH 540 0
DWIDTH 18 0
BBX 15 20 0 0
BITMAP
FFFE
FFFE
FFFE
FFFE
FFFE
FFFE
FFFE
FFFE
FFFE
FFFE
FFFE
FFFE
FFFE
FFFE
FFFE
FFFE
FFFE
FFFE
FFFE
FFFE
ENDCHAR
STARTCHAR 0090
ENCODING 144
SWIDTH 540 0
DWIDTH 18 0
BBX 15 20 0 0
BITMAP
FFFE
FFFE
FFFE
FFFE
FFFE
FFFE
FFFE
FFFE
FFFE
FFFE
FFFE
FFFE
FFFE
FFFE
FFFE
FFFE
FFFE
FFFE
FFFE
FFFE
ENDCHAR
STARTCHAR 009D
ENCODING 157
SWIDTH 540 0
DWIDTH 18 0
BBX 15 20 0 0
BITMAP
FFFE
FFFE
FFFE
FFFE
FFFE
FFFE
FFFE
FFFE
FFFE
FFFE
FFFE
FFFE
FFFE
FFFE
FFFE
FFFE
FFFE
FFFE
FFFE
FFFE
ENDCHAR
STARTCHAR 009E
ENCODING 158
SWIDTH 540 0
DWIDTH 18 0
BBX 15 20 0 0
BITMAP
FFFE
FFFE
FFFE
FFFE
FFFE
FFFE
FFFE
FFFE
FFFE
FFFE
FFFE
FFFE
FFFE
FFFE
FFFE
FFFE
FFFE
FFFE
FFFE
FFFE
ENDCHAR
STARTCHAR 00A0
ENCODING 160
SWIDTH 540 0
DWIDTH 18 0
BBX 0 0 0 0
BITMAP
ENDCHAR
STARTCHAR 00A1
ENCODING 161
SWIDTH 240 0
DWIDTH 8 0
BBX 5 21 0 0
BITMAP
F8
F8
F8
00
00
F8
F8
F8
F8
F8
F8
F8
F8
F8
F8
F8
F8
F8
F8
F8
F8
ENDCHAR
STARTCHAR 00A2
ENCODING 162
SWIDTH 540 0
DWIDTH 18 0
BBX 15 24 0 -5
BITMAP
00C0
00C0
00C0
07C0
07C0
07C0
1FF8
1FF8
F83E
F83E
F83E
F800
F800
F83E
F83E
F83E
1FF8
1FF8
1FF8
07C0
07C0
0700
0700
0700
ENDCHAR
STARTCHAR 00A3
ENCODING 163
SWIDTH 630 0
DWIDTH 21 0
BBX 18 21 0 0
BITMAP
07FE00
07FE00
07FE00
1F07C0
1F07C0
1F07C0
1F0000
1F0000
FFC000
FFC000
FFC000
1F0000
1F0000
1F0000
1F0000
1F0000
1F07C0
1F07C0
F8FE00
F8FE00
F8FE00
ENDCHAR
STARTCHAR 00A4
ENCODING 164
SWIDTH 450 0
DWIDTH 15 0
BBX 13 13 0 5
BITMAP
E038
E038
1FC0
1FC0
1FC0
19C0
19C0
19C0
1FC0
1FC0
E038
E038
E038
ENDCHAR
STARTCHAR 00A5
ENCODING 165
SWIDTH 540 0
DWIDTH 18 0
BBX 15 24 0 -3
BITMAP
F83E
F83E
F83E
F83E
F83E
F83E
F83E
F83E
1FF8
1FF8
1FF8
07C0
07C0
FFFE
FFFE
FFFE
07C0
07C0
FFFE
FFFE
FFFE
07C0
07C0
07C0
ENDCHAR
STARTCHAR 00A6
ENCODING 166
SWIDTH 240 0
DWIDTH 8 0
BBX 5 31 0 -5
BITMAP
F8
F8
F8
F8
F8
F8
F8
F8
F8
F8
F8
F8
F8
00
00
00
00
00
F8
F8
F8
F8
F8
F8
F8
F8
F8
F8
F8
F8
F8
ENDCHAR
STARTCHAR 00A7
ENCODING 167
SWIDTH 540 0
DWIDTH 18 0
BBX 15 31 0 -5
BITMAP
1FF8
1FF8
F83E
F83E
F83E
F800
F800
F8F8
F8F8
F8F8
1F3E
1F3E
1F3E
F83E
F83E
F83E
F83E
F83E
F8F8
F8F8
FFFE
1F3E
1F3E
003E
003E
003E
F83E
F83E
1FF8
1FF8
1FF8
ENDCHAR
STARTCHAR 00A8
ENCODING 168
SWIDTH 540 0
DWIDTH 18 0
BBX 15 3 0 23
BITMAP
F83E
F83E
F83E
ENDCHAR
STARTCHAR 00A9
ENCODING 169
SWIDTH 780 0
DWIDTH 26 0
BBX 23 21 0 0
BITMAP
3FFFF0
3FFFF0
3FFFF0
F8003E
F8003E
F9FE3E
F9FE3E
F9FE3E
F9C03E
F9C03E
F9C03E
F9C03E
F9C03E
F9FE3E
F9FE3E
F9FE3E
F8003E
F8003E
3FFFF0
3FFFF0
3FFFF0
ENDCHAR
STARTCHAR 00AA
ENCODING 170
SWIDTH 300 0
DWIDTH 10 0
BBX 8 12 0 13
BITMAP
FF
FF
07
07
FF
FF
FF
E7
E7
E7
FF
FF
ENDCHAR
STARTCHAR 00AB
ENCODING 171
SWIDTH 540 0
DWIDTH 18 0
BBX 15 8 0 8
BITMAP
1F3E
1F3E
1F3E
F8F8
F8F8
FFFE
1F3E
1F3E
ENDCHAR
STARTCHAR 00AC
ENCODING 172
SWIDTH 480 0
DWIDTH 16 0
BBX 12 5 1 8
BITMAP
FFF0
FFF0
FFF0
01F0
01F0
ENDCHAR
STARTCHAR 00AD
ENCODING 173
SWIDTH 240 0
DWIDTH 8 0
BBX 5 3 0 10
BITMAP
F8
F8
F8
ENDCHAR
STARTCHAR 00AE
ENCODING 174
SWIDTH 780 0
DWIDTH 26 0
BBX 23 21 0 0
BITMAP
3FFFF0
3FFFF0
3FFFF0
F8003E
F8003E
F9FE3E
F9FE3E
F9FE3E
F9CE3E
F9CE3E
F9F83E
F9F83E
F9F83E
F9CE3E
F9CE3E
F9CE3E
F8003E
F8003E
3FFFF0
3FFFF0
3FFFF0
ENDCHAR
STARTCHAR 00AF
ENCODING 175
SWIDTH 480 0
DWIDTH 16 0
BBX 13 3 0 23
BITMAP
FFF8
FFF8
FFF8
ENDCHAR
STARTCHAR 00B0
ENCODING 176
SWIDTH 300 0
DWIDTH 10 0
BBX 8 8 0 18
BITMAP
FF
FF
FF
E7
E7
FF
FF
FF
ENDCHAR
STARTCHAR 00B1
ENCODING 177
SWIDTH 480 0
DWIDTH 16 0
BBX 13 18 0 3
BITMAP
0700
0700
0700
0700
0700
FFF8
FFF8
FFF8
0700
0700
0700
0700
0700
0000
0000
FFF8
FFF8
FFF8
ENDCHAR
STARTCHAR 00B2
ENCODING 178
SWIDTH 300 0
DWIDTH 10 0
BBX 8 12 0 13
BITMAP
FF
FF
07
07
FF
FF
FF
E0
E0
E0
FF
FF
ENDCHAR
STARTCHAR 00B3
ENCODING 179
SWIDTH 300 0
DWIDTH 10 0
BBX 8 12 0 13
BITMAP
FF
FF
07
07
3F
3F
3F
07
07
FF
FF
FF
ENDCHAR
STARTCHAR 00B4
ENCODING 180
SWIDTH 240 0
DWIDTH 8 0
BBX 5 5 0 21
BITMAP
18
18
E0
E0
E0
ENDCHAR
STARTCHAR 00B5
ENCODING 181
SWIDTH 540 0
DWIDTH 18 0
BBX 15 18 0 -5
BITMAP
F83E
F83E
F83E
F83E
F83E
F83E
F83E
FF3E
FF3E
FF3E
F8F8
F8F8
F8F8
F800
F800
F800
F800
F800
ENDCHAR
STARTCHAR 00B6
ENCODING 182
SWIDTH 540 0
DWIDTH 18 0
BBX 15 21 1 0
BITMAP
3FFE
3FFE
3FFE
FFCE
FFCE
FFCE
FFCE
FFCE
3FCE
3FCE
3FCE
01CE
01CE
01CE
01CE
01CE
01CE
01CE
01CE
01CE
01CE
ENDCHAR
STARTCHAR 00B7
ENCODING 183
SWIDTH 330 0
DWIDTH 11 0
BBX 8 8 0 8
BITMAP
FF
FF
FF
FF
FF
FF
FF
FF
ENDCHAR
STARTCHAR 00B8
ENCODING 184
SWIDTH 240 0
DWIDTH 8 0
BBX 5 5 1 -5
BITMAP
38
38
F8
F8
F8
ENDCHAR
STARTCHAR 00B9
ENCODING 185
SWIDTH 240 0
DWIDTH 8 0
BBX 5 12 1 13
BITMAP
F8
F8
38
38
38
38
38
38
38
38
38
38
ENDCHAR
STARTCHAR 00BA
ENCODING 186
SWIDTH 300 0
DWIDTH 10 0
BBX 8 12 0 13
BITMAP
FF
FF
E7
E7
E7
E7
E7
E7
E7
E7
FF
FF
ENDCHAR
STARTCHAR 00BB
ENCODING 187
SWIDTH 540 0
DWIDTH 18 0
BBX 15 8 0 8
BITMAP
F8F8
F8F8
F8F8
1F3E
1F3E
FFFE
F8F8
F8F8
ENDCHAR
STARTCHAR 00BC
ENCODING 188
SWIDTH 690 0
DWIDTH 23 0
BBX 20 26 1 -3
BITMAP
F80000
F80000
380F80
380F80
380F80
383E00
383E00
383E00
383E00
383E00
383E00
01F000
01F000
01F000
01F000
01D000
07CE70
07CE70
07CE70
07CE70
07CE70
3E0FF0
3E0FF0
3E0FF0
000070
000070
ENDCHAR
STARTCHAR 00BD
ENCODING 189
SWIDTH 690 0
DWIDTH 23 0
BBX 20 26 1 -3
BITMAP
F80000
F80000
380F80
380F80
380F80
383E00
383E00
383E00
383E00
383E00
383E00
01F000
01F000
01F000
01F000
07CFF0
07CFF0
07CFF0
07C070
07C070
07C070
3E0F80
3E0F80
000FF0
000FF0
000FF0
ENDCHAR
STARTCHAR 00BE
ENCODING 190
SWIDTH 690 0
DWIDTH 23 0
BBX 20 26 1 -3
BITMAP
FE0000
FE0000
3E0F80
3E0F80
3E0F80
0E3E00
0E3E00
0E3E00
FE3E00
FE3E00
FE3E00
01F000
01F000
01F000
01F000
019000
0F8E70
0F8E70
0F8E70
0F8E70
0F8E70
3E0FF0
3E0FF0
3E0FF0
000070
000070
ENDCHAR
STARTCHAR 00BF
ENCODING 191
SWIDTH 540 0
DWIDTH 18 0
BBX 15 21 0 0
BITMAP
07C0
07C0
07C0
0000
0000
0000
07C0
07C0
07C0
07C0
07C0
1F00
1F00
F800
F800
F800
F83E
F83E
1FF8
1FF8
1FF8
ENDCHAR
STARTCHAR 00C0
ENCODING 192
SWIDTH 540 0
DWIDTH 18 0
BBX 15 26 0 0
BITMAP
0700
0700
0700
00C0
00C0
1FF8
1FF8
1FF8
F83E
F83E
F83E
F83E
F83E
F8FE
F8FE
FFFE
FF3E
FF3E
F83E
F83E
F83E
F83E
F83E
F83E
F83E
F83E
ENDCHAR
STARTCHAR 00C1
ENCODING 193
SWIDTH 540 0
DWIDTH 18 0
BBX 15 26 0 0
BITMAP
00C0
00C0
00C0
0700
0700
1FF8
1FF8
1FF8
F83E
F83E
F83E
F83E
F83E
F8FE
F8FE
FFFE
FF3E
FF3E
F83E
F83E
F83E
F83E
F83E
F83E
F83E
F83E
ENDCHAR
STARTCHAR 00C2
ENCODING 194
SWIDTH 540 0
DWIDTH 18 0
BBX 15 26 0 0
BITMAP
07C0
07C0
07C0
3838
3838
3FF8
3FF8
3FF8
F83E
F83E
F83E
F83E
F83E
F9FE
F9FE
FFFE
FF3E
FF3E
F83E
F83E
F83E
F83E
F83E
F83E
F83E
F83E
ENDCHAR
STARTCHAR 00C3
ENCODING 195
SWIDTH 540 0
DWIDTH 18 0
BBX 15 26 0 0
BITMAP
3F38
3F38
3F38
39F8
39F8
3FF8
3FF8
3FF8
F83E
F83E
F83E
F83E
F83E
F9FE
F9FE
FFFE
FF3E
FF3E
F83E
F83E
F83E
F83E
F83E
F83E
F83E
F83E
ENDCHAR
STARTCHAR 00C4
ENCODING 196
SWIDTH 540 0
DWIDTH 18 0
BBX 15 26 0 0
BITMAP
F83E
F83E
F83E
0000
0000
1FF8
1FF8
1FF8
F83E
F83E
F83E
F83E
F83E
F9FE
F9FE
FFFE
FF3E
FF3E
F83E
F83E
F83E
F83E
F83E
F83E
F83E
F83E
ENDCHAR
STARTCHAR 00C5
ENCODING 197
SWIDTH 540 0
DWIDTH 18 0
BBX 15 26 0 0
BITMAP
3FF8
3FF8
3FF8
3838
3838
3FF8
3FF8
3FF8
F83E
F83E
F83E
F83E
F83E
F9FE
F9FE
FFFE
FF3E
FF3E
F83E
F83E
F83E
F83E
F83E
F83E
F83E
F83E
ENDCHAR
STARTCHAR 00C6
ENCODING 198
SWIDTH 840 0
DWIDTH 28 0
BBX 25 21 0 0
BITMAP
1FFFFE00
1FFFFE00
1FFFFE00
F83E0F80
F83E0F80
F83E0F80
F83E0000
F83E0000
F9FFF000
F9FFF000
FFFFF000
FF3E0000
FF3E0000
F83E0000
F83E0000
F83E0000
F83E0F80
F83E0F80
F807FE00
F807FE00
F807FE00
ENDCHAR
STARTCHAR 00C7
ENCODING 199
SWIDTH 540 0
DWIDTH 18 0
BBX 15 26 0 -5
BITMAP
1FF8
1FF8
FFFE
F83E
F83E
F800
F800
F800
F800
F800
F800
F800
F800
F800
F800
F83E
F83E
F83E
1FF8
1FF8
1FF8
01C0
01C0
07C0
07C0
07C0
ENDCHAR
STARTCHAR 00C8
ENCODING 200
SWIDTH 540 0
DWIDTH 18 0
BBX 15 26 0 0
BITMAP
0700
0700
0700
00C0
00C0
1FF8
1FF8
1FF8
F83E
F83E
F83E
F800
F800
FFC0
FFC0
FFC0
F800
F800
F800
F800
F800
F83E
F83E
1FF8
1FF8
1FF8
ENDCHAR
STARTCHAR 00C9
ENCODING 201
SWIDTH 540 0
DWIDTH 18 0
BBX 15 26 0 0
BITMAP
00C0
00C0
00C0
0700
0700
1FF8
1FF8
1FF8
F83E
F83E
F83E
F800
F800
FFC0
FFC0
FFC0
F800
F800
F800
F800
F800
F83E
F83E
1FF8
1FF8
1FF8
ENDCHAR
STARTCHAR 00CA
ENCODING 202
SWIDTH 540 0
DWIDTH 18 0
BBX 15 26 0 0
BITMAP
07C0
07C0
07C0
3838
3838
3FF8
3FF8
3FF8
F83E
F83E
F83E
F800
F800
FFC0
FFC0
FFC0
F800
F800
F800
F800
F800
F83E
F83E
3FF8
3FF8
3FF8
ENDCHAR
STARTCHAR 00CB
ENCODING 203
SWIDTH 540 0
DWIDTH 18 0
BBX 15 26 0 0
BITMAP
F83E
F83E
F83E
0000
0000
1FF8
1FF8
1FF8
F83E
F83E
F83E
F800
F800
FFC0
FFC0
FFC0
F800
F800
F800
F800
F800
F83E
F83E
1FF8
1FF8
1FF8
ENDCHAR
STARTCHAR 00CC
ENCODING 204
SWIDTH 540 0
DWIDTH 18 0
BBX 15 26 0 0
BITMAP
0700
0700
0700
00C0
00C0
FFFE
FFFE
FFFE
07C0
07C0
07C0
07C0
07C0
07C0
07C0
07C0
07C0
07C0
07C0
07C0
07C0
07C0
07C0
FFFE
FFFE
FFFE
ENDCHAR
STARTCHAR 00CD
ENCODING 205
SWIDTH 540 0
DWIDTH 18 0
BBX 15 26 0 0
BITMAP
00C0
00C0
00C0
0700
0700
FFFE
FFFE
FFFE
07C0
07C0
07C0
07C0
07C0
07C0
07C0
07C0
07C0
07C0
07C0
07C0
07C0
07C0
07C0
FFFE
FFFE
FFFE
ENDCHAR
STARTCHAR 00CE
ENCODING 206
SWIDTH 540 0
DWIDTH 18 0
BBX 15 26 0 0
BITMAP
07C0
07C0
07C0
3838
3838
FFFE
FFFE
FFFE
07C0
07C0
07C0
07C0
07C0
07C0
07C0
07C0
07C0
07C0
07C0
07C0
07C0
07C0
07C0
FFFE
FFFE
FFFE
ENDCHAR
STARTCHAR 00CF
ENCODING 207
SWIDTH 540 0
DWIDTH 18 0
BBX 15 26 0 0
BITMAP
F83E
F83E
F83E
0000
0000
FFFE
FFFE
FFFE
07C0
07C0
07C0
07C0
07C0
07C0
07C0
07C0
07C0
07C0
07C0
07C0
07C0
07C0
07C0
FFFE
FFFE
FFFE
ENDCHAR
STARTCHAR 00D0
ENCODING 208
SWIDTH 630 0
DWIDTH 21 0
BBX 18 21 0 0
BITMAP
1FF800
1FF800
1FF800
1F3E00
1F3E00
1F07C0
1F07C0
1F07C0
FFC7C0
FFC7C0
FFC7C0
1F07C0
1F07C0
1F07C0
1F07C0
1F07C0
1F07C0
1F07C0
1FFE00
1FFE00
1FFE00
ENDCHAR
STARTCHAR 00D1
ENCODING 209
SWIDTH 540 0
DWIDTH 18 0
BBX 15 26 0 0
BITMAP
3F38
3F38
3F38
39F8
39F8
F9F8
F9F8
F9F8
FF3E
FF3E
FF3E
F83E
F83E
F83E
F83E
F83E
F83E
F83E
F83E
F83E
F83E
F83E
F83E
F83E
F83E
F83E
ENDCHAR
STARTCHAR 00D2
ENCODING 210
SWIDTH 540 0
DWIDTH 18 0
BBX 15 26 0 0
BITMAP
0700
0700
0700
00C0
00C0
1FF8
1FF8
1FF8
F83E
F83E
F83E
F83E
F83E
F83E
F83E
F83E
F83E
F83E
F83E
F83E
F83E
F83E
F83E
1FF8
1FF8
1FF8
ENDCHAR
STARTCHAR 00D3
ENCODING 211
SWIDTH 540 0
DWIDTH 18 0
BBX 15 26 0 0
BITMAP
00C0
00C0
00C0
0700
0700
1FF8
1FF8
1FF8
F83E
F83E
F83E
F83E
F83E
F83E
F83E
F83E
F83E
F83E
F83E
F83E
F83E
F83E
F83E
1FF8
1FF8
1FF8
ENDCHAR
STARTCHAR 00D4
ENCODING 212
SWIDTH 540 0
DWIDTH 18 0
BBX 15 26 0 0
BITMAP
07C0
07C0
07C0
3838
3838
3FF8
3FF8
3FF8
F83E
F83E
F83E
F83E
F83E
F83E
F83E
F83E
F83E
F83E
F83E
F83E
F83E
F83E
F83E
3FF8
3FF8
3FF8
ENDCHAR
STARTCHAR 00D5
ENCODING 213
SWIDTH 540 0
DWIDTH 18 0
BBX 15 26 0 0
BITMAP
3F38
3F38
3F38
39F8
39F8
3FF8
3FF8
3FF8
F83E
F83E
F83E
F83E
F83E
F83E
F83E
F83E
F83E
F83E
F83E
F83E
F83E
F83E
F83E
3FF8
3FF8
3FF8
ENDCHAR
STARTCHAR 00D6
ENCODING 214
SWIDTH 540 0
DWIDTH 18 0
BBX 15 26 0 0
BITMAP
F83E
F83E
F83E
0000
0000
1FF8
1FF8
1FF8
F83E
F83E
F83E
F83E
F83E
F83E
F83E
F83E
F83E
F83E
F83E
F83E
F83E
F83E
F83E
1FF8
1FF8
1FF8
ENDCHAR
STARTCHAR 00D7
ENCODING 215
SWIDTH 450 0
DWIDTH 15 0
BBX 13 13 0 5
BITMAP
E038
E038
18C0
18C0
18C0
0700
0700
1FC0
18C0
18C0
E038
E038
E038
ENDCHAR
STARTCHAR 00D8
ENCODING 216
SWIDTH 540 0
DWIDTH 18 0
BBX 15 31 0 -5
BITMAP
000E
000E
003E
003E
003E
1FFE
1FFE
1FFE
F83E
F83E
F83E
F83E
F83E
F8FE
F8FE
FFFE
FF3E
FF3E
F83E
F83E
F83E
F83E
F83E
FFF8
FFF8
FFF8
F800
F800
F800
E000
E000
ENDCHAR
STARTCHAR 00D9
ENCODING 217
SWIDTH 540 0
DWIDTH 18 0
BBX 15 26 0 0
BITMAP
0700
0700
00C0
00C0
00C0
F83E
F83E
F83E
F83E
F83E
F83E
F83E
F83E
F83E
F83E
F83E
F83E
F83E
F83E
F83E
F8FE
F8FE
F8FE
1F3E
1F3E
1F3E
ENDCHAR
STARTCHAR 00DA
ENCODING 218
SWIDTH 540 0
DWIDTH 18 0
BBX 15 26 0 0
BITMAP
00C0
00C0
0700
0700
0700
F83E
F83E
F83E
F83E
F83E
F83E
F83E
F83E
F83E
F83E
F83E
F83E
F83E
F83E
F83E
F8FE
F8FE
F8FE
1F3E
1F3E
1F3E
ENDCHAR
STARTCHAR 00DB
ENCODING 219
SWIDTH 540 0
DWIDTH 18 0
BBX 15 26 1 0
BITMAP
07C0
07C0
07C0
3830
3830
F83E
F83E
F83E
F83E
F83E
F83E
F83E
F83E
F83E
F83E
F83E
F83E
F83E
F83E
F83E
F9FE
F9FE
F9FE
3E3E
3E3E
3E3E
ENDCHAR
STARTCHAR 00DC
ENCODING 220
SWIDTH 540 0
DWIDTH 18 0
BBX 15 26 0 0
BITMAP
F83E
F83E
F83E
0000
0000
F83E
F83E
F83E
F83E
F83E
F83E
F83E
F83E
F83E
F83E
F83E
F83E
F83E
F83E
F83E
F8FE
F8FE
F8FE
1F3E
1F3E
1F3E
ENDCHAR
STARTCHAR 00DD
ENCODING 221
SWIDTH 540 0
DWIDTH 18 0
BBX 15 26 0 0
BITMAP
00C0
00C0
0700
0700
0700
F83E
F83E
F83E
F83E
F83E
F83E
F83E
F83E
F8FE
F8FE
FFFE
1F3E
1F3E
003E
003E
003E
003E
003E
07F8
07F8
07F8
ENDCHAR
STARTCHAR 00DE
ENCODING 222
SWIDTH 540 0
DWIDTH 18 0
BBX 15 21 0 0
BITMAP
F800
F800
F800
F8F8
F8F8
FF3E
FF3E
FF3E
F83E
F83E
F83E
F83E
F83E
FF3E
FF3E
FF3E
F8F8
F8F8
F8F8
F800
F800
ENDCHAR
STARTCHAR 00DF
ENCODING 223
SWIDTH 540 0
DWIDTH 18 0
BBX 15 21 0 0
BITMAP
1FF8
1FF8
1FF8
F83E
F83E
F83E
F83E
F83E
F8F8
F8F8
F8F8
FF3E
FF3E
FF3E
F83E
F83E
F83E
F83E
F8F8
F8F8
F8F8
ENDCHAR
STARTCHAR 00E0
ENCODING 224
SWIDTH 540 0
DWIDTH 18 0
BBX 15 21 0 0
BITMAP
0700
0700
0700
00C0
00C0
00C0
0000
0000
1FF8
1FF8
FFFE
F83E
F83E
F83E
F83E
F83E
F8FE
F8FE
1F3E
1F3E
1F3E
ENDCHAR
STARTCHAR 00E1
ENCODING 225
SWIDTH 540 0
DWIDTH 18 0
BBX 15 21 0 0
BITMAP
00C0
00C0
00C0
0700
0700
0700
0000
0000
1FF8
1FF8
FFFE
F83E
F83E
F83E
F83E
F83E
F8FE
F8FE
1F3E
1F3E
1F3E
ENDCHAR
STARTCHAR 00E2
ENCODING 226
SWIDTH 540 0
DWIDTH 18 0
BBX 15 21 0 0
BITMAP
07C0
07C0
07C0
3838
3838
3838
0000
0000
3FF8
3FF8
FFFE
F83E
F83E
F83E
F83E
F83E
F9FE
F9FE
3E3E
3E3E
3E3E
ENDCHAR
STARTCHAR 00E3
ENCODING 227
SWIDTH 540 0
DWIDTH 18 0
BBX 15 21 0 0
BITMAP
3E38
3E38
3E38
39F8
39F8
39F8
0000
0000
3FF8
3FF8
FFFE
F83E
F83E
F83E
F83E
F83E
F9FE
F9FE
3E3E
3E3E
3E3E
ENDCHAR
STARTCHAR 00E4
ENCODING 228
SWIDTH 540 0
DWIDTH 18 0
BBX 15 21 0 0
BITMAP
F83E
F83E
F83E
0000
0000
0000
0000
0000
1FF8
1FF8
FFFE
F83E
F83E
F83E
F83E
F83E
F8FE
F8FE
1F3E
1F3E
1F3E
ENDCHAR
STARTCHAR 00E5
ENCODING 229
SWIDTH 540 0
DWIDTH 18 0
BBX 15 24 0 0
BITMAP
3FF8
3FF8
3FF8
3838
3838
3838
3FF8
3FF8
3FF8
0000
0000
3FF8
3FF8
FFFE
F83E
F83E
F83E
F83E
F83E
F9FE
F9FE
3E3E
3E3E
3E3E
ENDCHAR
STARTCHAR 00E6
ENCODING 230
SWIDTH 840 0
DWIDTH 28 0
BBX 25 13 0 0
BITMAP
1FFFFE00
1FFFFE00
FFFFFF80
F83E0F80
F83E0F80
F83E3F80
F83E3F80
F83E3F80
F8FFC000
F8FFC000
1F3FF000
1F3FF000
1F3FF000
ENDCHAR
STARTCHAR 00E7
ENCODING 231
SWIDTH 540 0
DWIDTH 18 0
BBX 15 18 0 -5
BITMAP
1FF8
1FF8
FFFE
F83E
F83E
F800
F800
F83E
F83E
F83E
1FF8
1FF8
1FF8
01C0
01C0
07C0
07C0
07C0
ENDCHAR
STARTCHAR 00E8
ENCODING 232
SWIDTH 540 0
DWIDTH 18 0
BBX 15 21 0 0
BITMAP
0700
0700
0700
00C0
00C0
00C0
0000
0000
3FF0
3FF0
3FF0
F83E
F83E
F8FE
F8FE
F8FE
FF00
FF00
3FC0
3FC0
3FC0
ENDCHAR
STARTCHAR 00E9
ENCODING 233
SWIDTH 540 0
DWIDTH 18 0
BBX 15 21 0 0
BITMAP
00C0
00C0
00C0
0700
0700
0700
0000
0000
3FF0
3FF0
3FF0
F83E
F83E
F8FE
F8FE
F8FE
FF00
FF00
3FC0
3FC0
3FC0
ENDCHAR
STARTCHAR 00EA
ENCODING 234
SWIDTH 540 0
DWIDTH 18 0
BBX 15 21 0 0
BITMAP
07C0
07C0
07C0
3838
3838
3838
0000
0000
3FF8
3FF8
3FF8
F83E
F83E
F9FE
F9FE
F9FE
FF00
FF00
3FC0
3FC0
3FC0
ENDCHAR
STARTCHAR 00EB
ENCODING 235
SWIDTH 540 0
DWIDTH 18 0
BBX 15 21 0 0
BITMAP
F83E
F83E
F83E
0000
0000
0000
0000
0000
3FF0
3FF0
3FF0
F83E
F83E
F9FE
F9FE
F9FE
FF00
FF00
3FC0
3FC0
3FC0
ENDCHAR
STARTCHAR 00EC
ENCODING 236
SWIDTH 240 0
DWIDTH 8 0
BBX 5 21 0 0
BITMAP
E0
E0
E0
18
18
18
00
00
F8
F8
F8
F8
F8
F8
F8
F8
F8
F8
F8
F8
F8
ENDCHAR
STARTCHAR 00ED
ENCODING 237
SWIDTH 240 0
DWIDTH 8 0
BBX 5 21 0 0
BITMAP
18
18
18
E0
E0
E0
00
00
F8
F8
F8
F8
F8
F8
F8
F8
F8
F8
F8
F8
F8
ENDCHAR
STARTCHAR 00EE
ENCODING 238
SWIDTH 300 0
DWIDTH 10 0
BBX 10 21 0 0
BITMAP
1F00
1F00
1F00
E0C0
E0C0
E0C0
0000
0000
1F00
1F00
1F00
1F00
1F00
1F00
1F00
1F00
1F00
1F00
1F00
1F00
1F00
ENDCHAR
STARTCHAR 00EF
ENCODING 239
SWIDTH 300 0
DWIDTH 10 0
BBX 10 21 0 0
BITMAP
E0C0
E0C0
E0C0
0000
0000
0000
0000
0000
1F00
1F00
1F00
1F00
1F00
1F00
1F00
1F00
1F00
1F00
1F00
1F00
1F00
ENDCHAR
STARTCHAR 00F0
ENCODING 240
SWIDTH 540 0
DWIDTH 18 0
BBX 15 21 0 0
BITMAP
07C6
07C6
07C6
00F8
00F8
073E
073E
073E
00FE
00FE
1FFE
1F3E
1F3E
F83E
F83E
F83E
F83E
F83E
1FF8
1FF8
1FF8
ENDCHAR
STARTCHAR 00F1
ENCODING 241
SWIDTH 540 0
DWIDTH 18 0
BBX 15 21 0 0
BITMAP
3F38
3F38
3F38
38F8
38F8
38F8
0000
0000
F8F8
F8F8
F8F8
FF3E
FF3E
FF3E
F83E
F83E
F83E
F83E
F83E
F83E
F83E
ENDCHAR
STARTCHAR 00F2
ENCODING 242
SWIDTH 540 0
DWIDTH 18 0
BBX 15 21 0 0
BITMAP
0700
0700
0700
00C0
00C0
00C0
0000
0000
1FF8
1FF8
1FF8
F83E
F83E
F83E
F83E
F83E
F83E
F83E
1FF8
1FF8
1FF8
ENDCHAR
STARTCHAR 00F3
ENCODING 243
SWIDTH 540 0
DWIDTH 18 0
BBX 15 21 0 0
BITMAP
00C0
00C0
00C0
0700
0700
0700
0000
0000
1FF8
1FF8
1FF8
F83E
F83E
F83E
F83E
F83E
F83E
F83E
1FF8
1FF8
1FF8
ENDCHAR
STARTCHAR 00F4
ENCODING 244
SWIDTH 540 0
DWIDTH 18 0
BBX 15 21 0 0
BITMAP
07C0
07C0
07C0
3838
3838
3838
0000
0000
3FF8
3FF8
3FF8
F83E
F83E
F83E
F83E
F83E
F83E
F83E
3FF8
3FF8
3FF8
ENDCHAR
STARTCHAR 00F5
ENCODING 245
SWIDTH 540 0
DWIDTH 18 0
BBX 15 21 0 0
BITMAP
3F38
3F38
3F38
39F8
39F8
39F8
0000
0000
3FF8
3FF8
3FF8
F83E
F83E
F83E
F83E
F83E
F83E
F83E
3FF8
3FF8
3FF8
ENDCHAR
STARTCHAR 00F6
ENCODING 246
SWIDTH 540 0
DWIDTH 18 0
BBX 15 21 0 0
BITMAP
F83E
F83E
F83E
0000
0000
0000
0000
0000
1FF8
1FF8
1FF8
F83E
F83E
F83E
F83E
F83E
F83E
F83E
1FF8
1FF8
1FF8
ENDCHAR
STARTCHAR 00F7
ENCODING 247
SWIDTH 480 0
DWIDTH 16 0
BBX 13 13 0 5
BITMAP
0700
0700
0700
0000
0000
FFF8
FFF8
FFF8
0000
0000
0700
0700
0700
ENDCHAR
STARTCHAR 00F8
ENCODING 248
SWIDTH 540 0
DWIDTH 18 0
BBX 15 24 0 -5
BITMAP
000E
000E
000E
003E
003E
003E
1FFE
1FFE
FFFE
F83E
F83E
FFFE
FFFE
FFFE
F83E
F83E
FFF8
FFF8
FFF8
F800
F800
F800
E000
E000
ENDCHAR
STARTCHAR 00F9
ENCODING 249
SWIDTH 540 0
DWIDTH 18 0
BBX 15 21 0 0
BITMAP
0700
0700
0700
00C0
00C0
00C0
0000
0000
F83E
F83E
F83E
F83E
F83E
F83E
F83E
F8FE
F8FE
F8FE
1F3E
1F3E
1F3E
ENDCHAR
STARTCHAR 00FA
ENCODING 250
SWIDTH 540 0
DWIDTH 18 0
BBX 15 21 0 0
BITMAP
00C0
00C0
00C0
0700
0700
0700
0000
0000
F83E
F83E
F83E
F83E
F83E
F83E
F83E
F8FE
F8FE
F8FE
1F3E
1F3E
1F3E
ENDCHAR
STARTCHAR 00FB
ENCODING 251
SWIDTH 540 0
DWIDTH 18 0
BBX 15 21 0 0
BITMAP
07C0
07C0
07C0
3838
3838
3838
0000
0000
F83E
F83E
F83E
F83E
F83E
F83E
F83E
F9FE
F9FE
F9FE
3E3E
3E3E
3E3E
ENDCHAR
STARTCHAR 00FC
ENCODING 252
SWIDTH 540 0
DWIDTH 18 0
BBX 15 21 0 0
BITMAP
F83E
F83E
F83E
0000
0000
0000
0000
0000
F83E
F83E
F83E
F83E
F83E
F83E
F83E
F8FE
F8FE
F8FE
1F3E
1F3E
1F3E
ENDCHAR
STARTCHAR 00FD
ENCODING 253
SWIDTH 540 0
DWIDTH 18 0
BBX 15 26 0 -5
BITMAP
00C0
00C0
07C0
0700
0700
0000
0000
0000
F83E
F83E
F83E
F83E
F83E
F83E
F83E
F8FE
F8FE
F8FE
1F3E
1F3E
1F3E
003E
003E
07FE
07F8
07F8
ENDCHAR
STARTCHAR 00FE
ENCODING 254
SWIDTH 540 0
DWIDTH 18 0
BBX 15 26 0 -2
BITMAP
F800
F800
F800
F800
F800
F8F8
F8F8
F8F8
FF3E
FF3E
FF3E
F83E
F83E
F83E
F83E
F83E
FF3E
FF3E
F8F8
F8F8
F8F8
F800
F800
F800
F800
F800
ENDCHAR
STARTCHAR 00FF
ENCODING 255
SWIDTH 540 0
DWIDTH 18 0
BBX 15 26 0 -5
BITMAP
F83E
F83E
F83E
0000
0000
0000
0000
0000
F83E
F83E
F83E
F83E
F83E
F83E
F83E
F8FE
F8FE
F8FE
1F3E
1F3E
1F3E
003E
003E
07FE
07F8
07F8
ENDCHAR
STARTCHAR 0152
ENCODING 338
SWIDTH 840 0
DWIDTH 28 0
BBX 25 21 0 0
BITMAP
1FFFFE00
1FFFFE00
1FFFFE00
F83E0F80
F83E0F80
F83E0F80
F83E0000
F83E0000
F83FF000
F83FF000
F83FF000
F83E0000
F83E0000
F83E0000
F83E0000
F83E0000
F83E0F80
F83E0F80
1FFFFE00
1FFFFE00
1FFFFE00
ENDCHAR
STARTCHAR 0153
ENCODING 339
SWIDTH 840 0
DWIDTH 28 0
BBX 25 13 0 0
BITMAP
3FFFFC00
3FFFFC00
3FFFFC00
F83E0F80
F83E0F80
F83E7F80
F83E7F80
F83E7F80
F83FC000
F83FC000
3FFFF000
3FFFF000
3FFFF000
ENDCHAR
STARTCHAR 0160
ENCODING 352
SWIDTH 540 0
DWIDTH 18 0
BBX 15 26 0 0
BITMAP
3838
3838
3838
07C0
07C0
3FF8
3FF8
3FF8
F83E
F83E
F83E
F800
F800
F8F8
F8F8
FEFE
3E3E
3E3E
003E
003E
003E
F83E
F83E
3FF8
3FF8
3FF8
ENDCHAR
STARTCHAR 0161
ENCODING 353
SWIDTH 540 0
DWIDTH 18 0
BBX 15 21 0 0
BITMAP
3838
3838
3838
07C0
07C0
07C0
0000
0000
3FFE
3FFE
3FFE
F800
F800
FFFE
FFFE
FFFE
003E
003E
FFF8
FFF8
FFF8
ENDCHAR
STARTCHAR 0178
ENCODING 376
SWIDTH 540 0
DWIDTH 18 0
BBX 15 26 0 0
BITMAP
F83E
F83E
F83E
0000
0000
F83E
F83E
F83E
F83E
F83E
F83E
F83E
F83E
F8FE
F8FE
FFFE
1F3E
1F3E
003E
003E
003E
003E
003E
07F8
07F8
07F8
ENDCHAR
STARTCHAR 0192
ENCODING 402
SWIDTH 630 0
DWIDTH 21 0
BBX 18 21 0 0
BITMAP
07FE00
07FE00
07FE00
1F07C0
1F07C0
1F07C0
1F0000
1F0000
FFC000
FFC000
FFC000
1F0000
1F0000
1F0000
1F0000
1F0000
1F0000
1F0000
F80000
F80000
F80000
ENDCHAR
STARTCHAR 02C6
ENCODING 710
SWIDTH 390 0
DWIDTH 13 0
BBX 10 5 0 21
BITMAP
1F00
1F00
E0C0
E0C0
E0C0
ENDCHAR
STARTCHAR 02DC
ENCODING 732
SWIDTH 390 0
DWIDTH 13 0
BBX 10 5 0 21
BITMAP
F9C0
F9C0
E7C0
E7C0
E7C0
ENDCHAR
STARTCHAR 2013
ENCODING 8211
SWIDTH 390 0
DWIDTH 13 0
BBX 10 3 0 10
BITMAP
FFC0
FFC0
FFC0
ENDCHAR
STARTCHAR 2014
ENCODING 8212
SWIDTH 540 0
DWIDTH 18 0
BBX 15 3 0 10
BITMAP
FFFE
FFFE
FFFE
ENDCHAR
STARTCHAR 2018
ENCODING 8216
SWIDTH 240 0
DWIDTH 8 0
BBX 5 8 0 16
BITMAP
E0
E0
E0
F8
F8
F8
F8
F8
ENDCHAR
STARTCHAR 2019
ENCODING 8217
SWIDTH 240 0
DWIDTH 8 0
BBX 5 7 1 14
BITMAP
F8
F8
F8
F8
F8
38
38
ENDCHAR
STARTCHAR 201A
ENCODING 8218
SWIDTH 240 0
DWIDTH 8 0
BBX 5 8 1 -5
BITMAP
F8
F8
F8
F8
F8
38
38
38
ENDCHAR
STARTCHAR 201C
ENCODING 8220
SWIDTH 450 0
DWIDTH 15 0
BBX 13 8 0 16
BITMAP
E1C0
E1C0
E1C0
F9F8
F9F8
F9F8
F9F8
F9F8
ENDCHAR
STARTCHAR 201D
ENCODING 8221
SWIDTH 510 0
DWIDTH 17 0
BBX 14 7 1 14
BITMAP
F8FC
F8FC
F8FC
F8FC
F8FC
381C
381C
ENDCHAR
STARTCHAR 201E
ENCODING 8222
SWIDTH 510 0
DWIDTH 17 0
BBX 14 8 1 -5
BITMAP
F8FC
F8FC
F8FC
F8FC
F8FC
381C
381C
381C
ENDCHAR
STARTCHAR 2020
ENCODING 8224
SWIDTH 540 0
DWIDTH 18 0
BBX 15 21 0 0
BITMAP
07C0
07C0
07C0
07C0
07C0
FFFE
FFFE
FFFE
07C0
07C0
07C0
07C0
07C0
07C0
07C0
07C0
07C0
07C0
07C0
07C0
07C0
ENDCHAR
STARTCHAR 2021
ENCODING 8225
SWIDTH 540 0
DWIDTH 18 0
BBX 15 21 0 0
BITMAP
07C0
07C0
07C0
07C0
07C0
FFFE
FFFE
FFFE
07C0
07C0
07C0
07C0
07C0
FFFE
FFFE
FFFE
07C0
07C0
07C0
07C0
07C0
ENDCHAR
STARTCHAR 2022
ENCODING 8226
SWIDTH 480 0
DWIDTH 16 0
BBX 13 13 0 5
BITMAP
0700
0700
3FC0
3FC0
3FC0
FFF8
FFF8
FFF8
3FC0
3FC0
0700
0700
0700
ENDCHAR
STARTCHAR 2026
ENCODING 8230
SWIDTH 720 0
DWIDTH 24 0
BBX 21 3 0 0
BITMAP
F8F8F8
F8F8F8
F8F8F8
ENDCHAR
STARTCHAR 2030
ENCODING 8240
SWIDTH 840 0
DWIDTH 28 0
BBX 25 21 0 0
BITMAP
FF07C000
FF07C000
FF07C000
E73E0000
E73E0000
FF3E0000
FF3E0000
FF3E0000
00F80000
00F80000
00F80000
00F80000
00F80000
07C7FF80
07C7FF80
07C7FF80
07C63380
07C63380
1F07FF80
1F07FF80
1F07FF80
ENDCHAR
STARTCHAR 2039
ENCODING 8249
SWIDTH 330 0
DWIDTH 11 0
BBX 8 8 0 8
BITMAP
1F
1F
1F
F8
F8
FF
1F
1F
ENDCHAR
STARTCHAR 203A
ENCODING 8250
SWIDTH 330 0
DWIDTH 11 0
BBX 8 8 0 8
BITMAP
F8
F8
F8
1F
1F
FF
F8
F8
ENDCHAR
STARTCHAR 2122
ENCODING 8482
SWIDTH 450 0
DWIDTH 15 0
BBX 13 20 0 0
BITMAP
FFF8
FFF8
07F8
0700
0700
0700
0700
0700
0700
0700
E038
E038
E1F8
F9F8
F9F8
E738
E738
E738
E038
E038
ENDCHAR
STARTCHAR 2219
ENCODING 8729
SWIDTH 330 0
DWIDTH 11 0
BBX 8 8 0 8
BITMAP
FF
FF
FF
FF
FF
FF
FF
FF
ENDCHAR
STARTCHAR E000
ENCODING 57344
SWIDTH 0 0
DWIDTH 0 0
BBX 0 0 0 0
BITMAP
ENDCHAR
STARTCHAR E001
ENCODING 57345
SWIDTH 510 0
DWIDTH 17 0
BBX 0 0 0 0
BITMAP
ENDCHAR
ENDFONT
